<svg xmlns="http://www.w3.org/2000/svg" viewBox="0 0 107.92 142.41"><defs><style>.cls-1{fill:#bcbcbc;}</style></defs><g id="Layer_2" data-name="Layer 2"><g id="Layer_1-2" data-name="Layer 1"><path class="cls-1" d="M105.14,70.9a2.78,2.78,0,0,0-2.78,2.79v6.88a6.94,6.94,0,0,1-5.57,6.79V61.66a2.78,2.78,0,0,0-5.56,0v21H72.32v-21a2.79,2.79,0,0,0-5.57,0v25.7a6.93,6.93,0,0,1-5.56-6.79V61.17A11.81,11.81,0,0,1,73,49.37H90.56a11.79,11.79,0,0,1,7.5,2.7,2.78,2.78,0,1,0,3.54-4.3,17.37,17.37,0,0,0-9.34-3.87,12.74,12.74,0,0,0,2.3-7.31V34.77a12.79,12.79,0,1,0-25.57,0v1.82a12.69,12.69,0,0,0,2.3,7.3A17.39,17.39,0,0,0,55.63,61.17v19.4A12.52,12.52,0,0,0,66.75,93v46.64a2.79,2.79,0,0,0,2.79,2.78H94a2.78,2.78,0,0,0,2.78-2.78V93a12.52,12.52,0,0,0,11.13-12.42V73.69a2.79,2.79,0,0,0-2.78-2.79ZM74.55,34.77a7.23,7.23,0,1,1,14.45,0v1.82a7.23,7.23,0,0,1-14.45,0ZM72.32,88.21H79v48.63H72.32Zm18.91,48.63H84.55V88.21h6.68Z"/><path class="cls-1" d="M35.34,59.67a12.5,12.5,0,1,0-20.62,0A16.67,16.67,0,0,0,0,76.21V91.9a12,12,0,0,0,11.13,12v35.74a2.78,2.78,0,0,0,2.78,2.78H36.16a2.79,2.79,0,0,0,2.78-2.78V103.89a12,12,0,0,0,11.13-12V76.21A16.68,16.68,0,0,0,35.34,59.67ZM25,45.67a6.94,6.94,0,1,1-6.93,6.94A7,7,0,0,1,25,45.67ZM16.69,96.22h5.56v40.62H16.69Zm11.12,40.62V96.22h5.57v40.62ZM44.5,91.9a6.47,6.47,0,0,1-5.56,6.4V77.23a2.78,2.78,0,0,0-5.56,0V90.65H16.69V77.23a2.78,2.78,0,1,0-5.56,0V98.3a6.48,6.48,0,0,1-5.57-6.4V76.21a11.12,11.12,0,0,1,11.11-11.1H33.4a11.11,11.11,0,0,1,11.1,11.1V91.9Z"/><path class="cls-1" d="M5.78,27.49a3.29,3.29,0,0,0,.54,0L87.85,10.83l-1.21,2.09a2.78,2.78,0,0,0,1,3.8,2.79,2.79,0,0,0,3.8-1l4.22-7.31a2.78,2.78,0,0,0-1-3.8L87.35.37a2.78,2.78,0,1,0-2.78,4.82l.8.46L5.25,22a2.78,2.78,0,0,0,.53,5.51Z"/><path class="cls-1" d="M103.17,63.14a2.85,2.85,0,0,0,2,.81,2.78,2.78,0,0,0,0-5.56,2.85,2.85,0,0,0-2,.81,2.8,2.8,0,0,0,0,3.94Z"/></g></g></svg>