<svg xmlns="http://www.w3.org/2000/svg" viewBox="0 0 200 200"><defs><style>.cls-1{fill:#f15924;}.cls-2{fill:#fff;}</style></defs><g id="Layer_2" data-name="Layer 2"><g id="Layer_1-2" data-name="Layer 1"><circle class="cls-1" cx="100" cy="100" r="100"/><path class="cls-2" d="M152.55,93.91a2.77,2.77,0,0,0-2.78,2.78v6.88a7,7,0,0,1-5.56,6.8V84.66a2.79,2.79,0,0,0-5.57,0v21H119.73v-21a2.78,2.78,0,0,0-5.56,0v25.71a7,7,0,0,1-5.57-6.8V84.17a11.81,11.81,0,0,1,11.8-11.79H138a11.81,11.81,0,0,1,7.51,2.69A2.78,2.78,0,0,0,149,70.78a17.38,17.38,0,0,0-9.35-3.88,12.7,12.7,0,0,0,2.3-7.31V57.77a12.79,12.79,0,1,0-25.57,0v1.82a12.7,12.7,0,0,0,2.3,7.31A17.38,17.38,0,0,0,103,84.17v19.4A12.51,12.51,0,0,0,114.17,116v46.64a2.77,2.77,0,0,0,2.78,2.78h24.48a2.78,2.78,0,0,0,2.78-2.78V116a12.51,12.51,0,0,0,11.12-12.42V96.69a2.77,2.77,0,0,0-2.78-2.78ZM122,57.77a7.23,7.23,0,0,1,14.45,0v1.82a7.23,7.23,0,0,1-14.45,0Zm-2.23,53.44h6.68v48.64h-6.68Zm18.91,48.64H132V111.21h6.67Z"/><path class="cls-2" d="M82.76,82.67a12.5,12.5,0,1,0-20.63,0A16.7,16.7,0,0,0,47.41,99.22V114.9a12.06,12.06,0,0,0,11.13,12v35.73a2.77,2.77,0,0,0,2.78,2.78H83.57a2.77,2.77,0,0,0,2.78-2.78V126.9a12.05,12.05,0,0,0,11.13-12V99.22A16.7,16.7,0,0,0,82.76,82.67Zm-10.31-14a6.94,6.94,0,1,1-6.94,6.94A6.94,6.94,0,0,1,72.45,68.68ZM64.1,119.22h5.56v40.63H64.1Zm11.13,40.63V119.22h5.56v40.63ZM91.92,114.9a6.5,6.5,0,0,1-5.57,6.41V100.23a2.78,2.78,0,0,0-5.56,0v13.43H64.1V100.23a2.78,2.78,0,1,0-5.56,0v21.08A6.49,6.49,0,0,1,53,114.9V99.22a11.12,11.12,0,0,1,11.1-11.11H80.81A11.12,11.12,0,0,1,91.92,99.22V114.9Z"/><path class="cls-2" d="M53.2,50.5a2.46,2.46,0,0,0,.53-.06l81.53-16.6-1.2,2.08a2.78,2.78,0,0,0,1,3.8,2.81,2.81,0,0,0,1.39.37,2.78,2.78,0,0,0,2.41-1.39l4.22-7.3a2.8,2.8,0,0,0,.28-2.12,2.75,2.75,0,0,0-1.3-1.68l-7.3-4.22A2.78,2.78,0,1,0,132,28.19l.79.46L52.67,45a2.79,2.79,0,0,0,.53,5.52Z"/><path class="cls-2" d="M150.58,86.14a2.79,2.79,0,1,0-.81-2,2.81,2.81,0,0,0,.81,2Z"/></g></g></svg>