<svg xmlns="http://www.w3.org/2000/svg" viewBox="0 0 200 200"><defs><style>.cls-1{fill:#f15924;}.cls-2{fill:#fff;}</style></defs><g id="Layer_2" data-name="Layer 2"><g id="Layer_1-2" data-name="Layer 1"><circle class="cls-1" cx="100" cy="100" r="100"/><path class="cls-2" d="M137.48,38v8.22h9.27L128.67,63.4a35.2,35.2,0,0,0-56,7.6q-.78,0-1.56,0A35.23,35.23,0,0,0,67,141.19V152.1H54.68v8.22H67v11.91h8.21V160.32H88V152.1H75.19V141.19a35.32,35.32,0,0,0,26.74-18c.51,0,1,0,1.55,0a35.21,35.21,0,0,0,30.23-53.3l19.64-18.62v10.2h8.22V38Zm-66.4,95.17a27,27,0,0,1-1.72-54A35.22,35.22,0,0,0,93.19,121.7,27,27,0,0,1,71.08,133.21Zm25.81-19A27,27,0,0,1,77.68,80a27,27,0,0,1,19.21,34.21Zm8.32.75A35.22,35.22,0,0,0,81.38,72.5,27,27,0,1,1,105.21,115Z"/></g></g></svg>