<svg xmlns="http://www.w3.org/2000/svg" viewBox="0 0 125.71 134.19"><defs><style>.cls-1{fill:#bcbcbc;}</style></defs><g id="Layer_2" data-name="Layer 2"><g id="Layer_1-2" data-name="Layer 1"><path class="cls-1" d="M101.63,0V8.22h9.26L92.81,25.36a35.2,35.2,0,0,0-56,7.6c-.51,0-1,0-1.55,0a35.23,35.23,0,0,0-4.11,70.22v10.91H18.82v8.22h12.3v11.91h8.22V122.28H52.18v-8.22H39.34V103.15a35.32,35.32,0,0,0,26.74-18c.51,0,1,0,1.55,0A35.21,35.21,0,0,0,97.86,31.9L117.5,13.28v10.2h8.21V0ZM35.23,95.17a27,27,0,0,1-1.73-54A35.27,35.27,0,0,0,57.34,83.66,27,27,0,0,1,35.23,95.17Zm25.8-19A27,27,0,0,1,41.83,42,27,27,0,0,1,61,76.17Zm8.33.75A35.27,35.27,0,0,0,45.52,34.46,27,27,0,1,1,69.36,76.92Z"/></g></g></svg>