<svg xmlns="http://www.w3.org/2000/svg" viewBox="0 0 200 200"><defs><style>.cls-1{fill:#f15924;}.cls-2{fill:#fff;}</style></defs><g id="Layer_2" data-name="Layer 2"><g id="Layer_1-2" data-name="Layer 1"><circle class="cls-1" cx="100" cy="100" r="100"/><g id="Icons"><path class="cls-2" d="M98.47,29.08a58.16,58.16,0,0,0-43,97.28l40.28,46.86a3.64,3.64,0,0,0,5.12.4,5,5,0,0,0,.4-.4l40.28-46.86a58.16,58.16,0,0,0-43-97.28ZM136,121.63,98.47,165.29,61,121.67a50.89,50.89,0,1,1,75,0Z"/><path class="cls-2" d="M98.47,61.8a25.45,25.45,0,1,0,25.45,25.44A25.45,25.45,0,0,0,98.47,61.8Zm0,43.62a18.18,18.18,0,1,1,18.17-18.18A18.18,18.18,0,0,1,98.47,105.42Z"/></g></g></g></svg>