<svg xmlns="http://www.w3.org/2000/svg" viewBox="0 0 116.33 145.41"><defs><style>.cls-1{fill:#bcbcbc;}</style></defs><g id="Layer_2" data-name="Layer 2"><g id="Layer_1-2" data-name="Layer 1"><g id="Icons"><path class="cls-1" d="M58.16,0a58.16,58.16,0,0,0-43,97.28L55.4,144.14a3.65,3.65,0,0,0,5.13.4c.14-.13.27-.26.4-.4L101.2,97.28A58.15,58.15,0,0,0,58.16,0ZM95.68,92.55,58.16,136.21,20.65,92.59a50.89,50.89,0,1,1,75,0Z"/><path class="cls-1" d="M58.16,32.72A25.45,25.45,0,1,0,83.61,58.16,25.44,25.44,0,0,0,58.16,32.72Zm0,43.62A18.18,18.18,0,1,1,76.34,58.16,18.18,18.18,0,0,1,58.16,76.34Z"/></g></g></g></svg>