<svg xmlns="http://www.w3.org/2000/svg" viewBox="0 0 200 200"><defs><style>.cls-1{fill:#f15924;}.cls-2{fill:#fff;}</style></defs><g id="Layer_2" data-name="Layer 2"><g id="Layer_1-2" data-name="Layer 1"><circle class="cls-1" cx="100" cy="100" r="100"/><path class="cls-2" d="M137.36,95.66a3.85,3.85,0,0,0,7.7,0c0-17.33-9-24.08-16.94-30-7.44-5.58-13.86-10.39-13.86-23.87a3.85,3.85,0,0,0-7.7,0c0,17.33,9,24.08,16.94,30C130.94,77.36,137.36,82.18,137.36,95.66Z"/><path class="cls-2" d="M145.06,41.75a3.85,3.85,0,1,0-7.7,0c0,16.57,4.43,23.22,8.35,29.09,3.62,5.44,7,10.58,7,24.82a3.85,3.85,0,1,0,7.7,0c0-16.57-4.43-23.22-8.35-29.09C148.49,61.12,145.06,56,145.06,41.75Z"/><path class="cls-2" d="M156.61,107.21H32.89A3.85,3.85,0,0,0,29,111.06v23.1A3.85,3.85,0,0,0,32.89,138H156.61a3.85,3.85,0,0,0,3.85-3.85v-23.1A3.85,3.85,0,0,0,156.61,107.21Zm-19.25,7.7v15.4H83.2v-15.4Zm-100.62,0H75.5v15.4H36.74Zm116,15.4h-7.7v-15.4h7.7Z"/></g></g></svg>