<svg xmlns="http://www.w3.org/2000/svg" viewBox="0 0 131.43 100.11"><defs><style>.cls-1{fill:#bcbcbc;}</style></defs><g id="Layer_2" data-name="Layer 2"><g id="Layer_1-2" data-name="Layer 1"><path class="cls-1" d="M108.32,57.76a3.86,3.86,0,0,0,7.71,0c0-17.33-9-24.08-17-30C91.65,22.14,85.22,17.33,85.22,3.85a3.85,3.85,0,1,0-7.7,0c0,17.33,9,24.08,16.94,30C101.9,39.46,108.32,44.28,108.32,57.76Z"/><path class="cls-1" d="M116,3.85a3.86,3.86,0,0,0-7.71,0c0,16.57,4.44,23.22,8.35,29.09,3.63,5.44,7.06,10.58,7.06,24.82a3.85,3.85,0,0,0,7.7,0c0-16.57-4.44-23.22-8.35-29.09C119.45,23.23,116,18.09,116,3.85Z"/><path class="cls-1" d="M127.58,69.31H3.85A3.85,3.85,0,0,0,0,73.16v23.1a3.85,3.85,0,0,0,3.85,3.85H127.58a3.85,3.85,0,0,0,3.85-3.85V73.16A3.85,3.85,0,0,0,127.58,69.31ZM108.32,77v15.4H54.16V77ZM7.7,77H46.46v15.4H7.7Zm116,15.4H116V77h7.7Z"/></g></g></svg>